<svg width="390" height="189" viewBox="0 0 390 189" fill="none" xmlns="http://www.w3.org/2000/svg">
<rect x="-23" y="62.8775" width="413" height="16.1224" fill="#D9D9D9"/>
<rect x="-27" width="437" height="62.8776" fill="#8C8989"/>
<rect x="13" y="25" width="64" height="11.2857" fill="#D9D9D9"/>
<rect x="121" y="25" width="64" height="11.2857" fill="#D9D9D9"/>
<rect x="229" y="25" width="64" height="11.2857" fill="#D9D9D9"/>
<rect x="337" y="25" width="64" height="11.2857" fill="#D9D9D9"/>
<g filter="url(#filter0_di_44_158)">
<rect x="-63" y="79" width="597" height="187" fill="#9CD7A5"/>
<ellipse cx="350" cy="185.128" rx="15" ry="18" fill="#1BA070"/>
<ellipse cx="363.5" cy="171.128" rx="11.5" ry="14" fill="#1BA070"/>
<ellipse cx="374" cy="186.128" rx="16" ry="15" fill="#1BA070"/>
<ellipse cx="378" cy="173.128" rx="11" ry="13" fill="#1BA070"/>
<ellipse cx="190" cy="192.128" rx="15" ry="18" fill="#1BA070"/>
<ellipse cx="203.5" cy="178.128" rx="11.5" ry="14" fill="#1BA070"/>
<ellipse cx="214" cy="193.128" rx="16" ry="15" fill="#1BA070"/>
<ellipse cx="218" cy="180.128" rx="11" ry="13" fill="#1BA070"/>
<ellipse cx="40" cy="195.128" rx="15" ry="18" fill="#1BA070"/>
<ellipse cx="53.5" cy="181.128" rx="11.5" ry="14" fill="#1BA070"/>
<ellipse cx="64" cy="196.128" rx="16" ry="15" fill="#1BA070"/>
<ellipse cx="68" cy="183.128" rx="11" ry="13" fill="#1BA070"/>
<ellipse cx="325.035" cy="111.867" rx="15" ry="18" transform="rotate(14.526 325.035 111.867)" fill="#1BA070"/>
<ellipse cx="341.615" cy="101.701" rx="11.5" ry="14" transform="rotate(14.526 341.615 101.701)" fill="#1BA070"/>
<ellipse cx="348.017" cy="118.855" rx="16" ry="15" transform="rotate(14.526 348.017 118.855)" fill="#1BA070"/>
<ellipse cx="355.15" cy="107.274" rx="11" ry="13" transform="rotate(14.526 355.15 107.274)" fill="#1BA070"/>
<ellipse cx="272" cy="164.128" rx="15" ry="18" fill="#1BA070"/>
<ellipse cx="285.5" cy="150.128" rx="11.5" ry="14" fill="#1BA070"/>
<ellipse cx="296" cy="165.128" rx="16" ry="15" fill="#1BA070"/>
<ellipse cx="300" cy="152.128" rx="11" ry="13" fill="#1BA070"/>
<ellipse cx="211.552" cy="140.43" rx="15" ry="18" transform="rotate(-144 211.552 140.43)" fill="#1BA070"/>
<ellipse cx="192.401" cy="143.821" rx="11.5" ry="14" transform="rotate(-144 192.401 143.821)" fill="#1BA070"/>
<ellipse cx="192.723" cy="125.514" rx="16" ry="15" transform="rotate(-144 192.723 125.514)" fill="#1BA070"/>
<ellipse cx="181.846" cy="133.68" rx="11" ry="13" transform="rotate(-144 181.846 133.68)" fill="#1BA070"/>
<ellipse cx="29" cy="132.128" rx="15" ry="18" fill="#1BA070"/>
<ellipse cx="42.5" cy="118.128" rx="11.5" ry="14" fill="#1BA070"/>
<ellipse cx="53" cy="133.128" rx="16" ry="15" fill="#1BA070"/>
<ellipse cx="57" cy="120.128" rx="11" ry="13" fill="#1BA070"/>
<ellipse cx="48.5" cy="143" rx="16.5" ry="8" fill="#1BA070"/>
<ellipse cx="245.106" cy="105.763" rx="15" ry="18" transform="rotate(27.6178 245.106 105.763)" fill="#1BA070"/>
<ellipse cx="263.558" cy="99.6166" rx="11.5" ry="14" transform="rotate(27.6178 263.558 99.6166)" fill="#1BA070"/>
<ellipse cx="265.908" cy="117.775" rx="16" ry="15" transform="rotate(27.6178 265.908 117.775)" fill="#1BA070"/>
<ellipse cx="275.479" cy="108.111" rx="11" ry="13" transform="rotate(27.6178 275.479 108.111)" fill="#1BA070"/>
<ellipse cx="128" cy="112.128" rx="15" ry="18" fill="#1BA070"/>
<ellipse cx="141.5" cy="98.1276" rx="11.5" ry="14" fill="#1BA070"/>
<ellipse cx="152" cy="113.128" rx="16" ry="15" fill="#1BA070"/>
<ellipse cx="156" cy="100.128" rx="11" ry="13" fill="#1BA070"/>
<ellipse cx="98" cy="164.128" rx="15" ry="18" fill="#1BA070"/>
<ellipse cx="111.5" cy="150.128" rx="11.5" ry="14" fill="#1BA070"/>
<ellipse cx="122" cy="165.128" rx="16" ry="15" fill="#1BA070"/>
<ellipse cx="126" cy="152.128" rx="11" ry="13" fill="#1BA070"/>
</g>
<defs>
<filter id="filter0_di_44_158" x="-67" y="79" width="605" height="195" filterUnits="userSpaceOnUse" color-interpolation-filters="sRGB">
<feFlood flood-opacity="0" result="BackgroundImageFix"/>
<feColorMatrix in="SourceAlpha" type="matrix" values="0 0 0 0 0 0 0 0 0 0 0 0 0 0 0 0 0 0 127 0" result="hardAlpha"/>
<feOffset dy="4"/>
<feGaussianBlur stdDeviation="2"/>
<feComposite in2="hardAlpha" operator="out"/>
<feColorMatrix type="matrix" values="0 0 0 0 0 0 0 0 0 0 0 0 0 0 0 0 0 0 0.25 0"/>
<feBlend mode="normal" in2="BackgroundImageFix" result="effect1_dropShadow_44_158"/>
<feBlend mode="normal" in="SourceGraphic" in2="effect1_dropShadow_44_158" result="shape"/>
<feColorMatrix in="SourceAlpha" type="matrix" values="0 0 0 0 0 0 0 0 0 0 0 0 0 0 0 0 0 0 127 0" result="hardAlpha"/>
<feOffset dx="4" dy="4"/>
<feGaussianBlur stdDeviation="2"/>
<feComposite in2="hardAlpha" operator="arithmetic" k2="-1" k3="1"/>
<feColorMatrix type="matrix" values="0 0 0 0 0 0 0 0 0 0 0 0 0 0 0 0 0 0 0.25 0"/>
<feBlend mode="normal" in2="shape" result="effect2_innerShadow_44_158"/>
</filter>
</defs>
</svg>
